<svg width="510" height="511" viewBox="0 0 510 511" fill="none" xmlns="http://www.w3.org/2000/svg">
<rect width="509.044" height="509.044" transform="translate(0 1)" fill="#131A39"/>
<rect x="3.7868" y="353.522" width="216" height="216" rx="15" transform="rotate(-45 3.7868 353.522)" stroke="#FFF369" stroke-width="20"/>
<rect x="199.787" y="157.257" width="216" height="216" rx="15" transform="rotate(-45 199.787 157.257)" stroke="#24E5FC" stroke-width="20"/>
<path fill-rule="evenodd" clip-rule="evenodd" d="M197.126 255.511L160.057 292.579C158.105 294.532 154.939 294.532 152.986 292.579L21.4645 161.057C19.5118 159.105 19.5118 155.939 21.4645 153.986L152.986 22.4645C154.939 20.5118 158.105 20.5118 160.057 22.4645L240.247 102.654L254.389 88.5122L174.2 8.32233C164.436 -1.44077 148.607 -1.44078 138.844 8.32233L7.32233 139.844C-2.44077 149.607 -2.44078 165.436 7.32233 175.2L138.844 306.721C148.607 316.484 164.436 316.484 174.2 306.721L211.268 269.653L197.126 255.511ZM211.268 241.369L225.41 255.511L305.721 175.2C315.484 165.436 315.484 149.607 305.721 139.844L268.532 102.654L254.389 116.796L291.579 153.986C293.532 155.939 293.532 159.105 291.579 161.057L211.268 241.369Z" fill="#C278FF"/>
<path fill-rule="evenodd" clip-rule="evenodd" d="M254.522 422.399L334.844 502.721C344.607 512.484 360.436 512.484 370.2 502.721L501.721 371.2C511.485 361.436 511.485 345.607 501.721 335.844L370.2 204.322C360.436 194.559 344.607 194.559 334.844 204.322L298.036 241.13L312.178 255.273L348.986 218.464C350.939 216.512 354.105 216.512 356.057 218.464L487.579 349.986C489.532 351.939 489.532 355.105 487.579 357.057L356.057 488.579C354.105 490.532 350.939 490.532 348.986 488.579L268.664 408.257L254.522 422.399ZM298.036 269.415L217.464 349.986C215.512 351.939 215.512 355.105 217.464 357.057L254.522 394.115L240.38 408.257L203.322 371.2C193.559 361.436 193.559 345.607 203.322 335.844L283.894 255.273L298.036 269.415Z" fill="#FF7197"/>
</svg>
